<?xml version="1.0" encoding="utf-8"?>
<svg xmlns="http://www.w3.org/2000/svg" viewBox="100.213 151.8226 318.4919 318.7234" width="318.492px" height="318.723px">
  <path d="M 148.495 391.57 C 149.113 391.57 149.73 391.57 150.348 391.564 C 152.733 391.564 155.039 391.717 157.393 392.102 C 157.754 392.158 158.109 392.206 158.47 392.255 C 159.821 392.439 161.087 392.781 162.39 393.203 C 162.579 393.264 162.769 393.326 162.958 393.387 C 163.344 393.503 163.723 393.625 164.102 393.748 C 164.891 393.998 165.686 394.237 166.475 394.475 C 167.068 394.665 167.624 394.903 168.187 395.172 C 168.566 395.344 168.945 395.49 169.337 395.631 C 171.667 396.555 173.881 397.869 175.978 399.227 C 176.156 399.337 176.327 399.447 176.504 399.563 C 177.929 400.487 179.256 401.508 180.571 402.584 C 180.724 402.707 180.724 402.707 180.877 402.835 C 183.054 404.621 185.133 406.584 186.925 408.761 C 187.096 408.957 187.261 409.153 187.427 409.348 C 191.181 413.806 194.319 419.225 195.994 424.821 C 196.098 425.157 196.215 425.493 196.331 425.83 C 196.838 427.352 197.205 428.893 197.548 430.465 C 197.597 430.661 197.639 430.863 197.682 431.071 C 198.312 434.037 198.471 436.935 198.465 439.963 C 198.465 440.238 198.465 440.238 198.465 440.513 C 198.453 446.035 197.48 451.185 195.75 456.426 C 195.695 456.603 195.64 456.786 195.585 456.976 C 195.126 458.444 194.484 459.814 193.811 461.19 C 193.756 461.306 193.701 461.422 193.64 461.544 C 192.099 464.755 190.246 467.788 187.983 470.546 C 186.98 470.277 186.197 469.77 185.335 469.213 C 185.188 469.115 185.041 469.024 184.889 468.926 C 184.589 468.73 184.289 468.54 183.99 468.345 C 183.623 468.112 183.262 467.88 182.895 467.648 C 179.764 465.648 176.675 463.569 173.685 461.367 C 173.367 461.135 173.043 460.902 172.725 460.67 C 169.924 458.633 167.178 456.517 164.506 454.303 C 164.194 454.053 163.882 453.802 163.564 453.545 C 161.442 451.808 159.375 449.998 157.344 448.157 C 156.983 447.839 156.623 447.527 156.262 447.209 C 153.828 445.075 151.541 442.782 149.253 440.489 C 148.795 440.03 148.336 439.571 147.877 439.113 C 147.517 438.752 147.156 438.391 146.795 438.03 C 146.544 437.779 146.294 437.535 146.043 437.284 C 145.162 436.391 144.312 435.486 143.499 434.532 C 143.205 434.208 142.912 433.884 142.618 433.566 C 141.903 432.777 141.193 431.988 140.496 431.181 C 140.423 431.089 140.343 431.003 140.264 430.912 C 139.224 429.707 138.197 428.49 137.187 427.255 C 136.833 426.814 136.466 426.386 136.099 425.958 C 134.992 424.68 133.983 423.341 132.98 421.983 C 132.613 421.488 132.234 421.004 131.855 420.521 C 130.864 419.237 129.916 417.916 128.968 416.595 C 128.669 416.173 128.363 415.751 128.057 415.335 C 127.146 414.088 126.253 412.846 125.44 411.538 C 125.158 411.085 124.859 410.639 124.559 410.192 C 123.342 408.388 122.192 406.535 121.049 404.682 C 120.822 404.327 120.596 403.979 120.364 403.636 C 120.247 403.465 120.137 403.294 120.015 403.117 C 119.911 402.964 119.807 402.811 119.697 402.652 C 119.489 402.23 119.489 402.23 119.514 401.851 C 119.783 401.27 120.339 400.964 120.847 400.609 C 121.024 400.481 121.024 400.481 121.208 400.352 C 122.981 399.093 124.797 397.931 126.73 396.934 C 126.913 396.836 127.103 396.738 127.293 396.634 C 127.482 396.536 127.672 396.438 127.867 396.334 C 128.033 396.249 128.204 396.157 128.381 396.065 C 128.846 395.876 128.846 395.876 129.555 395.876 C 129.555 395.76 129.555 395.643 129.555 395.521 C 131.023 394.983 132.491 394.457 133.965 393.931 C 134.105 393.882 134.246 393.827 134.387 393.778 C 135.359 393.436 136.344 393.222 137.346 393.014 C 137.927 392.891 138.502 392.757 139.083 392.616 C 142.233 391.846 145.242 391.552 148.495 391.57 Z" style="stroke-width: 1; fill: rgb(53, 146, 204);" transform="matrix(0.9999999999999999, 0, 0, 0.9999999999999999, 0, -5.684341886080802e-14)"/>
  <path d="M 106.072 272.299 C 110.028 272.544 114.211 273.639 117.844 275.223 C 118.278 275.412 118.676 275.553 119.128 275.687 C 122.284 276.721 125.433 278.69 128.143 280.598 C 128.296 280.708 128.455 280.818 128.62 280.928 C 129.934 281.864 131.158 282.891 132.375 283.949 C 132.515 284.072 132.656 284.194 132.803 284.316 C 135.182 286.402 137.383 288.646 139.261 291.19 C 139.456 291.441 139.456 291.441 139.658 291.698 C 141.835 294.499 143.707 297.624 145.089 300.902 C 145.303 301.366 145.523 301.837 145.743 302.302 C 145.982 302.865 146.177 303.433 146.367 304.014 C 146.489 304.406 146.624 304.791 146.758 305.182 C 148.25 309.525 149.18 314.062 149.174 318.673 C 149.174 318.93 149.174 318.93 149.174 319.193 C 149.174 319.554 149.174 319.915 149.174 320.276 C 149.168 320.82 149.174 321.37 149.174 321.915 C 149.174 323.688 149.156 325.437 148.972 327.204 C 148.954 327.425 148.935 327.645 148.911 327.877 C 148.709 329.681 148.22 331.363 147.694 333.094 C 147.523 333.669 147.37 334.243 147.217 334.824 C 146.556 337.271 145.688 339.582 144.557 341.851 C 144.44 342.09 144.44 342.09 144.324 342.322 C 143.23 344.499 142.092 346.585 140.673 348.566 C 140.551 348.737 140.429 348.915 140.3 349.092 C 139.053 350.835 137.707 352.456 136.264 354.033 C 136.099 354.217 135.94 354.394 135.775 354.571 C 134.87 355.581 133.946 356.522 132.907 357.391 C 132.717 357.556 132.527 357.721 132.338 357.886 C 127.91 361.751 122.859 364.662 117.373 366.747 C 117.263 366.784 117.153 366.827 117.043 366.87 C 113.655 368.154 109.912 369.396 106.249 369.396 C 105.46 366.619 105.46 366.619 105.319 366.13 C 105.216 365.763 105.105 365.402 104.995 365.035 C 104.818 364.381 104.702 363.72 104.592 363.048 C 104.427 362.045 104.219 361.066 103.956 360.082 C 103.625 358.84 103.442 357.599 103.271 356.327 C 103.142 355.33 102.959 354.364 102.733 353.385 C 102.317 351.563 102.127 349.722 101.925 347.869 C 101.772 346.499 101.601 345.141 101.387 343.784 C 101.014 341.423 100.812 339.062 100.653 336.677 C 100.647 336.525 100.635 336.366 100.623 336.2 C 100.274 330.978 100.213 325.749 100.213 320.514 C 100.213 320.367 100.213 320.214 100.213 320.062 C 100.219 313.114 100.305 306.192 101.198 299.293 C 101.302 298.486 101.399 297.673 101.491 296.865 C 101.931 293.159 102.378 289.478 103.161 285.821 C 103.301 285.093 103.411 284.365 103.528 283.631 C 103.662 282.751 103.846 281.913 104.133 281.063 C 104.451 280.103 104.604 279.167 104.738 278.17 C 104.934 276.727 105.258 275.382 105.705 273.993 C 105.876 273.431 105.992 272.886 106.072 272.299 Z" style="stroke-width: 1; fill: rgb(53, 146, 204);" transform="matrix(0.9999999999999999, 0, 0, 0.9999999999999999, 0, -5.684341886080802e-14)"/>
  <path d="M 278.903 152.19 C 280.707 152.294 282.517 152.337 284.327 152.374 C 284.67 152.38 284.67 152.38 285.024 152.392 C 285.33 152.398 285.33 152.398 285.642 152.404 C 286.137 152.435 286.137 152.435 286.669 152.612 C 287 152.655 287.336 152.692 287.678 152.722 C 287.88 152.747 288.082 152.765 288.29 152.79 C 288.51 152.808 288.724 152.832 288.95 152.851 C 290.62 153.022 292.271 153.23 293.928 153.499 C 294.815 153.634 295.69 153.707 296.583 153.738 C 298.851 153.817 301.126 154.343 303.316 154.93 C 304.166 155.132 304.991 155.156 305.86 155.199 C 306.429 155.26 306.796 155.401 307.321 155.609 C 307.658 155.701 307.994 155.786 308.337 155.866 C 308.532 155.909 308.728 155.958 308.924 156 C 309.126 156.049 309.333 156.098 309.541 156.141 C 309.737 156.19 309.933 156.233 310.135 156.282 C 311.089 156.502 312.037 156.697 313.003 156.85 C 313.993 157.009 314.954 157.236 315.926 157.486 C 316.164 157.548 316.164 157.548 316.409 157.609 C 316.794 157.707 317.18 157.811 317.559 157.908 C 317.577 158.807 317.534 159.584 317.326 160.465 C 317.18 161.107 317.039 161.743 316.941 162.391 C 316.678 164.091 316.183 165.693 315.639 167.32 C 315.584 167.491 315.584 167.491 315.528 167.663 C 315.094 168.953 314.63 170.207 314.049 171.436 C 313.89 171.778 313.737 172.127 313.59 172.482 C 312.636 174.647 311.486 176.787 310.147 178.738 C 310.025 178.915 309.908 179.093 309.786 179.276 C 308.453 181.239 307.016 183.11 305.407 184.853 C 305.15 185.129 304.9 185.41 304.655 185.697 C 301.499 189.312 297.488 192.229 293.341 194.614 C 293.017 194.803 292.693 194.999 292.369 195.189 C 291.348 195.788 290.339 196.351 289.226 196.748 C 288.846 196.895 288.498 197.066 288.137 197.256 C 287.324 197.665 286.48 197.959 285.605 198.246 C 285.367 198.326 285.367 198.326 285.116 198.405 C 283.838 198.821 282.56 199.164 281.257 199.463 C 280.921 199.549 280.59 199.641 280.26 199.732 C 278.707 200.167 277.172 200.479 275.57 200.674 C 275.447 200.686 275.325 200.699 275.203 200.717 C 270.426 201.28 265.461 201.261 260.715 200.454 C 260.568 200.43 260.415 200.405 260.262 200.381 C 256 199.696 251.945 198.112 248.007 196.393 C 248.007 196.271 248.007 196.155 248.007 196.039 C 247.885 196.02 247.762 196.008 247.64 195.99 C 247.01 195.837 246.484 195.562 245.922 195.256 C 245.805 195.189 245.689 195.127 245.573 195.066 C 243.182 193.751 240.974 192.241 238.828 190.565 C 238.656 190.437 238.491 190.302 238.32 190.174 C 232.406 185.471 226.786 178.671 224.175 171.497 C 224.034 171.161 223.887 170.824 223.741 170.482 C 223.086 168.916 222.505 167.314 222.053 165.675 C 222.01 165.504 221.961 165.333 221.912 165.161 C 220.616 160.336 220.616 160.336 220.646 157.908 C 221.991 157.492 223.319 157.144 224.719 156.936 C 225.428 156.814 226.113 156.636 226.811 156.459 C 229.355 155.805 231.923 155.334 234.516 154.942 C 235.415 154.802 236.308 154.637 237.201 154.459 C 238.644 154.172 240.069 153.945 241.537 153.823 C 243.408 153.652 245.267 153.377 247.126 153.114 C 257.621 151.64 268.341 151.573 278.903 152.19 Z" style="stroke-width: 1; fill: rgb(53, 146, 204);" transform="matrix(0.9999999999999999, 0, 0, 0.9999999999999999, 0, -5.684341886080802e-14)"/>
  <path d="M 188.356 171.546 C 189.775 172.102 190.784 174.494 191.518 175.735 C 191.634 175.931 191.75 176.133 191.866 176.334 C 192.704 177.765 193.456 179.233 194.184 180.719 C 194.392 181.135 194.612 181.545 194.826 181.961 C 195.224 182.75 195.493 183.563 195.756 184.401 C 195.909 184.866 196.086 185.3 196.282 185.746 C 196.655 186.651 196.869 187.593 197.077 188.553 C 197.23 189.226 197.401 189.886 197.609 190.541 C 197.89 191.452 198.031 192.357 198.147 193.299 C 198.165 193.452 198.19 193.605 198.208 193.758 C 198.275 194.284 198.337 194.809 198.398 195.329 C 198.428 195.568 198.459 195.806 198.496 196.039 C 198.746 198.057 198.826 200.044 198.82 202.075 C 198.82 202.228 198.82 202.387 198.82 202.552 C 198.82 204.9 198.661 207.138 198.129 209.432 C 198.013 209.951 197.939 210.477 197.86 210.997 C 197.731 211.792 197.536 212.551 197.315 213.315 C 197.199 213.743 197.095 214.159 197.003 214.587 C 196.716 215.926 196.398 217.137 195.786 218.366 C 195.579 218.801 195.426 219.223 195.279 219.669 C 192.6 227.222 187.164 234.328 180.926 239.288 C 180.602 239.557 180.284 239.826 179.966 240.095 C 178.975 240.902 177.941 241.612 176.865 242.29 C 176.688 242.4 176.688 242.4 176.504 242.517 C 173.789 244.235 170.988 245.623 168.034 246.877 C 167.845 246.963 167.661 247.048 167.465 247.134 C 166.566 247.519 165.643 247.819 164.713 248.125 C 164.536 248.186 164.353 248.253 164.163 248.314 C 163.185 248.644 162.218 248.914 161.197 249.097 C 160.726 249.189 160.255 249.311 159.784 249.427 C 150.629 251.678 138.845 250.809 130.467 246.369 C 130.081 246.174 129.696 246.021 129.286 245.874 C 125.947 244.578 122.681 242.364 120.021 239.991 C 120.29 239.012 120.761 238.217 121.287 237.361 C 121.379 237.202 121.477 237.049 121.568 236.897 C 122.608 235.184 123.703 233.515 124.804 231.851 C 125.128 231.356 125.452 230.867 125.776 230.377 C 127.011 228.506 128.283 226.665 129.61 224.861 C 129.916 224.439 130.228 224.023 130.534 223.601 C 131.69 222.024 132.864 220.464 134.087 218.929 C 134.325 218.629 134.564 218.318 134.802 218.012 C 135.756 216.789 136.735 215.59 137.738 214.41 C 138.172 213.908 138.588 213.395 139.01 212.875 C 139.695 212.037 140.41 211.23 141.144 210.435 C 141.487 210.055 141.829 209.676 142.159 209.291 C 143.003 208.331 143.866 207.389 144.734 206.453 C 144.826 206.349 144.924 206.252 145.015 206.148 C 146.667 204.368 148.354 202.631 150.067 200.919 C 150.464 200.527 150.862 200.13 151.253 199.732 C 151.51 199.476 151.767 199.219 152.024 198.962 C 152.14 198.846 152.256 198.729 152.378 198.607 C 153.051 197.934 153.748 197.298 154.476 196.675 C 154.8 196.387 155.106 196.088 155.412 195.776 C 155.944 195.238 156.494 194.742 157.063 194.253 C 157.479 193.892 157.889 193.519 158.292 193.146 C 159.063 192.449 159.864 191.794 160.671 191.14 C 161.13 190.761 161.57 190.37 162.004 189.972 C 162.775 189.269 163.576 188.621 164.402 187.985 C 165.349 187.245 166.279 186.492 167.209 185.728 C 167.998 185.08 168.805 184.462 169.624 183.857 C 169.753 183.765 169.881 183.667 170.01 183.569 C 175.244 179.692 180.602 176.023 186.167 172.635 C 186.436 172.469 186.705 172.292 186.968 172.115 C 187.09 172.029 187.212 171.95 187.341 171.864 C 187.451 171.791 187.555 171.717 187.665 171.638 C 187.983 171.497 187.983 171.497 188.356 171.546 Z" style="stroke-width: 1; fill: rgb(53, 146, 204);" transform="matrix(0.9999999999999999, 0, 0, 0.9999999999999999, 0, -5.684341886080802e-14)"/>
  <path d="M 350.216 171.497 C 352.46 172.335 354.509 173.833 356.509 175.117 C 356.9 175.368 357.291 175.619 357.683 175.864 C 359.218 176.842 360.716 177.869 362.202 178.915 C 363.003 179.478 363.811 180.034 364.63 180.572 C 365.401 181.08 366.122 181.63 366.844 182.218 C 367.474 182.725 368.116 183.208 368.764 183.691 C 370.489 184.976 372.164 186.303 373.828 187.66 C 374.317 188.058 374.812 188.455 375.302 188.853 C 377.46 190.596 379.57 192.369 381.582 194.277 C 382.108 194.773 382.64 195.256 383.185 195.727 C 383.912 196.369 384.628 197.023 385.331 197.69 C 385.46 197.806 385.588 197.928 385.723 198.057 C 387.056 199.317 388.364 200.613 389.661 201.916 C 390.052 202.307 390.45 202.705 390.841 203.096 C 391.098 203.353 391.355 203.61 391.612 203.867 C 391.728 203.983 391.844 204.093 391.96 204.215 C 392.633 204.888 393.275 205.585 393.893 206.307 C 394.364 206.851 394.865 207.365 395.354 207.891 C 396.443 209.04 397.483 210.233 398.504 211.444 C 398.865 211.866 399.226 212.282 399.586 212.703 C 400.565 213.841 401.531 214.991 402.473 216.165 C 402.552 216.263 402.632 216.367 402.718 216.465 C 403.953 217.993 405.17 219.541 406.356 221.106 C 406.485 221.271 406.607 221.436 406.735 221.608 C 409.133 224.776 411.414 228.029 413.597 231.344 C 413.677 231.472 413.762 231.607 413.854 231.735 C 414.912 233.343 415.964 234.958 416.936 236.621 C 417.432 237.459 417.964 238.266 418.514 239.068 C 418.716 239.465 418.716 239.465 418.697 239.838 C 417.474 242.394 412.001 244.449 409.524 245.654 C 409.206 245.807 408.894 245.966 408.588 246.131 C 405.415 247.715 401.886 248.699 398.412 249.354 C 398.168 249.397 397.923 249.452 397.678 249.501 C 394.535 250.1 391.392 250.302 388.193 250.29 C 388.034 250.29 387.869 250.29 387.704 250.29 C 385.288 250.277 382.952 250.192 380.585 249.702 C 380.378 249.666 380.176 249.623 379.968 249.58 C 376.268 248.846 372.513 247.959 369.149 246.192 C 368.746 245.996 368.348 245.831 367.926 245.678 C 363.798 244.064 359.774 241.257 356.576 238.23 C 356.356 238.046 356.142 237.863 355.922 237.679 C 355.194 237.043 354.509 236.364 353.824 235.68 C 353.659 235.514 353.659 235.514 353.494 235.349 C 348.136 229.974 344.106 223.002 342.021 215.718 C 341.966 215.535 341.917 215.352 341.862 215.162 C 341.752 214.789 341.648 214.416 341.544 214.043 C 341.409 213.566 341.269 213.095 341.128 212.618 C 340.596 210.771 340.327 208.961 340.192 207.04 C 340.162 206.716 340.119 206.392 340.064 206.068 C 339.966 205.279 339.954 204.509 339.948 203.72 C 339.948 203.555 339.948 203.396 339.948 203.231 C 339.948 202.717 339.948 202.203 339.948 201.689 C 339.948 201.512 339.948 201.335 339.948 201.157 C 339.954 195.323 340.504 189.379 343.006 184.009 C 343.189 183.612 343.33 183.202 343.464 182.786 C 344.822 179.001 347.286 174.249 350.216 171.497 Z" style="stroke-width: 1; fill: rgb(53, 146, 204);" transform="matrix(0.9999999999999999, 0, 0, 0.9999999999999999, 0, -5.684341886080802e-14)"/>
  <path d="M 185.861 307.568 C 189.506 309.953 192.062 313.42 193.028 317.677 C 193.878 321.823 192.912 325.939 190.649 329.479 C 189.585 331.051 188.448 332.244 186.925 333.381 C 186.778 333.503 186.625 333.62 186.473 333.742 C 185.317 334.61 184.112 335.1 182.754 335.577 C 182.583 335.638 182.412 335.699 182.241 335.76 C 181.152 336.121 180.131 336.329 178.981 336.384 C 178.859 336.39 178.736 336.396 178.614 336.402 C 174.186 336.549 170.291 335.069 167.043 332.054 C 164.114 329.198 162.432 325.345 162.328 321.285 C 162.286 317.499 163.282 314.068 165.741 311.139 C 165.924 310.913 165.924 310.913 166.108 310.686 C 167.092 309.525 168.199 308.644 169.447 307.782 C 169.655 307.635 169.655 307.635 169.857 307.488 C 171.269 306.54 172.945 306.118 174.572 305.666 C 174.676 305.635 174.792 305.598 174.902 305.568 C 178.59 304.785 182.675 305.623 185.861 307.568 Z" style="stroke-width: 1; fill: rgb(53, 146, 204);" transform="matrix(0.9999999999999999, 0, 0, 0.9999999999999999, 0, -5.684341886080802e-14)"/>
  <path d="M 208.464 370.979 C 208.641 371.022 208.819 371.071 209.002 371.114 C 211.479 371.75 213.546 373.267 215.35 375.04 C 215.534 375.205 215.534 375.205 215.717 375.377 C 218.169 377.639 219.6 381.143 219.784 384.44 C 219.888 387.656 219.545 390.384 217.998 393.228 C 217.9 393.393 217.808 393.564 217.717 393.741 C 215.576 397.362 211.986 399.943 207.932 400.994 C 203.792 401.881 199.627 401.27 196.037 399.007 C 192.576 396.701 190.001 393.179 189.157 389.081 C 189.023 388.341 188.9 387.62 188.87 386.874 C 188.858 386.635 188.858 386.635 188.845 386.397 C 188.754 382.201 190.123 378.514 192.931 375.395 C 193.028 375.285 193.126 375.175 193.23 375.058 C 196.985 371.071 203.198 369.212 208.464 370.979 Z" style="stroke-width: 1; fill: rgb(53, 146, 204);" transform="matrix(0.9999999999999999, 0, 0, 0.9999999999999999, 0, -5.684341886080802e-14)"/>
  <path d="M 208.464 241.232 C 208.617 241.257 208.776 241.294 208.941 241.324 C 211.534 241.862 213.693 243.636 215.521 245.464 C 215.644 245.574 215.76 245.678 215.876 245.782 C 218.396 248.07 219.637 251.751 219.808 255.066 C 219.857 256.717 219.735 258.264 219.374 259.879 C 219.337 260.032 219.307 260.191 219.27 260.35 C 218.995 261.481 218.555 262.459 217.998 263.475 C 217.857 263.731 217.857 263.731 217.711 263.988 C 215.454 267.67 211.883 270.287 207.687 271.339 C 203.841 272.189 199.762 271.504 196.392 269.468 C 194.172 267.988 191.769 266.135 190.986 263.475 C 190.87 263.475 190.753 263.475 190.631 263.475 C 190.466 263.077 190.301 262.68 190.136 262.282 C 190.087 262.172 190.044 262.068 189.995 261.952 C 189.243 260.111 188.949 258.35 188.98 256.368 C 188.98 256.056 188.98 256.056 188.986 255.732 C 189.065 251.378 190.558 248.125 193.511 244.981 C 194.459 244.07 195.53 243.354 196.637 242.639 C 196.765 242.553 196.893 242.468 197.028 242.376 C 200.324 240.333 204.831 240.229 208.464 241.232 Z" style="stroke-width: 1; fill: rgb(53, 146, 204);" transform="matrix(0.9999999999999999, 0, 0, 0.9999999999999999, 0, -5.684341886080802e-14)"/>
  <path d="M 276.781 215.988 C 276.781 216.104 276.781 216.22 276.781 216.336 C 277.007 216.397 277.007 216.397 277.239 216.458 C 277.93 216.727 278.419 217.107 278.964 217.59 C 279.117 217.718 279.117 217.718 279.27 217.847 C 281.942 220.207 284.309 223.797 284.547 227.46 C 284.804 232.035 283.911 236.114 280.841 239.642 C 278.046 242.718 274.31 244.792 270.102 245.012 C 265.907 245.122 261.932 244.039 258.825 241.098 C 258.575 240.853 258.318 240.596 258.067 240.346 C 257.926 240.211 257.786 240.07 257.639 239.924 C 254.667 236.823 253.511 232.762 253.597 228.53 C 253.756 225.204 255.015 222.201 257.186 219.694 C 257.296 219.553 257.413 219.412 257.529 219.265 C 262.189 213.713 270.506 212.673 276.781 215.988 Z" style="stroke-width: 1; fill: rgb(53, 146, 204);" transform="matrix(0.9999999999999999, 0, 0, 0.9999999999999999, 0, -5.684341886080802e-14)"/>
  <path d="M 343.158 243.526 C 346.271 245.715 348.565 249.103 349.292 252.852 C 349.402 253.567 349.464 254.283 349.512 254.998 C 349.519 255.121 349.531 255.243 349.537 255.365 C 349.782 259.738 348.247 263.493 345.397 266.765 C 343.116 269.205 339.899 270.844 336.627 271.419 C 336.376 271.468 336.376 271.468 336.119 271.517 C 332.132 272.085 328.2 270.997 324.971 268.642 C 321.607 266.061 319.418 262.569 318.794 258.356 C 318.751 257.585 318.757 256.815 318.751 256.05 C 318.745 255.842 318.745 255.641 318.739 255.433 C 318.721 251.311 320.555 247.874 323.332 244.926 C 328.824 239.581 336.902 239.465 343.158 243.526 Z" style="stroke-width: 1; fill: rgb(53, 146, 204);" transform="matrix(0.9999999999999999, 0, 0, 0.9999999999999999, 0, -5.684341886080802e-14)"/>
</svg>